<svg width="260" height="51" viewBox="0 0 260 51" fill="none" xmlns="http://www.w3.org/2000/svg">
<path fill-rule="evenodd" clip-rule="evenodd" d="M38.1463 7.75233C39.398 6.49988 41.427 6.49988 42.6785 7.75233C43.9302 9.00399 43.9302 11.0329 42.6785 12.2846C41.4269 13.5362 39.3979 13.5362 38.1463 12.2846C36.8939 11.033 36.8939 9.00399 38.1463 7.75233Z" fill="#00AFEF"/>
<path fill-rule="evenodd" clip-rule="evenodd" d="M21.793 3.63643C21.793 1.86632 23.2276 0.431641 24.9981 0.431641C26.7684 0.431641 28.203 1.86632 28.203 3.63643C28.203 5.40704 26.7683 6.84172 24.9981 6.84172C23.2276 6.84172 21.793 5.40694 21.793 3.63643Z" fill="#00AFEF"/>
<path fill-rule="evenodd" clip-rule="evenodd" d="M7.32156 12.2885C6.0699 11.0368 6.0699 9.0079 7.32156 7.75623C8.57323 6.50378 10.6026 6.50378 11.8538 7.75623C13.1061 9.0079 13.1061 11.0368 11.8538 12.2885C10.6025 13.5401 8.57313 13.5401 7.32156 12.2885Z" fill="#00AFEF"/>
<path fill-rule="evenodd" clip-rule="evenodd" d="M3.20723 28.6366C1.43663 28.6366 0.00195312 27.202 0.00195312 25.4315C0.00195312 23.6612 1.43673 22.2266 3.20723 22.2266C4.97735 22.2266 6.41203 23.6612 6.41203 25.4315C6.41213 27.202 4.97735 28.6366 3.20723 28.6366Z" fill="#00AFEF"/>
<path fill-rule="evenodd" clip-rule="evenodd" d="M11.8578 43.1086C10.6061 44.3599 8.57674 44.3599 7.32517 43.1086C6.0739 41.8569 6.0739 39.8276 7.32517 38.5751C8.57684 37.3239 10.6062 37.3239 11.8578 38.5751C13.1098 39.8276 13.1098 41.8569 11.8578 43.1086Z" fill="#00AFEF"/>
<path fill-rule="evenodd" clip-rule="evenodd" d="M28.2063 47.2263C28.2063 48.9964 26.7711 50.4315 25.0011 50.4315C23.2309 50.4315 21.7959 48.9963 21.7959 47.2263C21.7959 45.4561 23.231 44.0215 25.0011 44.0215C26.7712 44.0214 28.2063 45.4561 28.2063 47.2263Z" fill="#00AFEF"/>
<path fill-rule="evenodd" clip-rule="evenodd" d="M42.6786 38.5755C43.9303 39.8274 43.9303 41.8569 42.6786 43.1081C41.427 44.3601 39.3976 44.3601 38.146 43.1081C36.894 41.8568 36.894 39.8274 38.146 38.5755C39.3977 37.3238 41.4271 37.3238 42.6786 38.5755Z" fill="#00AFEF"/>
<path fill-rule="evenodd" clip-rule="evenodd" d="M46.7927 22.2266C48.5629 22.2266 49.9979 23.6616 49.9979 25.4317C49.9979 27.202 48.5628 28.6366 46.7927 28.6366C45.0226 28.6366 43.5879 27.202 43.5879 25.4317C43.5879 23.6616 45.0227 22.2266 46.7927 22.2266Z" fill="#00AFEF"/>
<path fill-rule="evenodd" clip-rule="evenodd" d="M26.5462 17.6113L32.2706 23.3357H39.0915C38.0797 16.5642 32.2395 11.3706 25.1868 11.3706C17.4218 11.3706 11.127 17.6654 11.127 25.4305C11.127 33.1955 17.4218 39.4898 25.1868 39.4898C32.2394 39.4898 38.0788 34.2967 39.0907 27.5256H32.2698L26.5461 33.2493C25.7979 33.9976 24.5749 33.9976 23.8267 33.2493L17.3676 26.7903C16.6192 26.0419 16.6192 24.8187 17.3676 24.0704L23.8267 17.6112C24.575 16.863 25.798 16.863 26.5462 17.6113Z" fill="#00AFEF"/>
<path d="M72.2306 37.3276C69.9206 37.3276 67.9296 36.8326 66.2576 35.8426C64.5856 34.8306 63.2986 33.4336 62.3966 31.6516C61.4946 29.8476 61.0436 27.7686 61.0436 25.4146C61.0436 23.0606 61.4946 20.9816 62.3966 19.1776C63.2986 17.3736 64.5856 15.9656 66.2576 14.9536C67.9296 13.9416 69.9206 13.4356 72.2306 13.4356C75.0246 13.4356 77.3236 14.1396 79.1276 15.5476C80.9316 16.9556 82.0536 18.9356 82.4936 21.4876H77.4116C77.1476 20.2556 76.5646 19.3096 75.6626 18.6496C74.7826 17.9676 73.6166 17.6266 72.1646 17.6266C70.8226 17.6266 69.6676 17.9456 68.6996 18.5836C67.7536 19.1996 67.0276 20.0906 66.5216 21.2566C66.0156 22.4226 65.7626 23.8086 65.7626 25.4146C65.7626 27.0206 66.0156 28.4066 66.5216 29.5726C67.0276 30.7166 67.7536 31.6076 68.6996 32.2456C69.6676 32.8616 70.8226 33.1696 72.1646 33.1696C73.6166 33.1696 74.7826 32.8616 75.6626 32.2456C76.5426 31.6076 77.1256 30.7276 77.4116 29.6056H82.4936C82.0536 32.0036 80.9316 33.8956 79.1276 35.2816C77.3236 36.6456 75.0246 37.3276 72.2306 37.3276ZM94.0513 37.3276C92.4673 37.3276 91.0373 36.9646 89.7613 36.2386C88.4853 35.4906 87.4733 34.4566 86.7253 33.1366C85.9993 31.8166 85.6363 30.3206 85.6363 28.6486C85.6363 26.9326 85.9993 25.4146 86.7253 24.0946C87.4733 22.7746 88.4853 21.7516 89.7613 21.0256C91.0373 20.2776 92.4783 19.9036 94.0843 19.9036C95.6903 19.9036 97.1313 20.2776 98.4073 21.0256C99.6833 21.7516 100.684 22.7746 101.41 24.0946C102.158 25.3926 102.532 26.8996 102.532 28.6156C102.532 30.3316 102.158 31.8496 101.41 33.1696C100.662 34.4676 99.6503 35.4906 98.3743 36.2386C97.1203 36.9646 95.6793 37.3276 94.0513 37.3276ZM94.0513 33.3346C94.7773 33.3346 95.4153 33.1586 95.9653 32.8066C96.5153 32.4546 96.9553 31.9266 97.2853 31.2226C97.6373 30.5186 97.8133 29.6496 97.8133 28.6156C97.8133 27.5816 97.6483 26.7126 97.3183 26.0086C96.9883 25.3046 96.5373 24.7766 95.9653 24.4246C95.4153 24.0726 94.7883 23.8966 94.0843 23.8966C93.4023 23.8966 92.7753 24.0726 92.2033 24.4246C91.6313 24.7766 91.1803 25.3046 90.8503 26.0086C90.5203 26.7126 90.3553 27.5816 90.3553 28.6156C90.3553 29.6496 90.5203 30.5186 90.8503 31.2226C91.1803 31.9266 91.6203 32.4546 92.1703 32.8066C92.7423 33.1586 93.3693 33.3346 94.0513 33.3346ZM106.37 36.9316V20.2996H110.462L110.891 23.3686C111.309 22.6426 111.815 22.0266 112.409 21.5206C113.003 21.0146 113.696 20.6186 114.488 20.3326C115.28 20.0466 116.138 19.9036 117.062 19.9036V24.7876H115.511C114.851 24.7876 114.235 24.8646 113.663 25.0186C113.113 25.1726 112.629 25.4256 112.211 25.7776C111.815 26.1076 111.507 26.5696 111.287 27.1636C111.089 27.7356 110.99 28.4616 110.99 29.3416V36.9316H106.37ZM127.592 36.9316C126.404 36.9316 125.359 36.7446 124.457 36.3706C123.577 35.9966 122.895 35.3806 122.411 34.5226C121.927 33.6646 121.685 32.4986 121.685 31.0246V24.1606H118.814V20.2996H121.685L122.18 15.7126H126.305V20.2996H130.628V24.1606H126.305V31.0576C126.305 31.7836 126.459 32.2896 126.767 32.5756C127.097 32.8616 127.647 33.0046 128.417 33.0046H130.595V36.9316H127.592ZM140.017 37.3276C138.653 37.3276 137.509 37.1076 136.585 36.6676C135.683 36.2056 135.012 35.6006 134.572 34.8526C134.154 34.0826 133.945 33.2356 133.945 32.3116C133.945 31.3216 134.198 30.4416 134.704 29.6716C135.21 28.9016 135.991 28.2966 137.047 27.8566C138.103 27.4166 139.423 27.1966 141.007 27.1966H145.099C145.099 26.4046 144.989 25.7556 144.769 25.2496C144.571 24.7216 144.241 24.3256 143.779 24.0616C143.339 23.7976 142.745 23.6656 141.997 23.6656C141.183 23.6656 140.49 23.8416 139.918 24.1936C139.368 24.5456 139.027 25.0736 138.895 25.7776H134.407C134.539 24.5896 134.935 23.5666 135.595 22.7086C136.255 21.8286 137.135 21.1466 138.235 20.6626C139.357 20.1566 140.622 19.9036 142.03 19.9036C143.592 19.9036 144.945 20.1676 146.089 20.6956C147.255 21.2236 148.146 21.9826 148.762 22.9726C149.4 23.9626 149.719 25.1836 149.719 26.6356V36.9316H145.825L145.297 34.4236C145.077 34.8636 144.791 35.2596 144.439 35.6116C144.109 35.9636 143.724 36.2716 143.284 36.5356C142.844 36.7776 142.349 36.9646 141.799 37.0966C141.271 37.2506 140.677 37.3276 140.017 37.3276ZM141.139 33.7636C141.689 33.7636 142.184 33.6756 142.624 33.4996C143.064 33.3016 143.438 33.0266 143.746 32.6746C144.054 32.3226 144.307 31.9266 144.505 31.4866C144.703 31.0246 144.835 30.5296 144.901 30.0016V29.9686H141.568C140.93 29.9686 140.402 30.0566 139.984 30.2326C139.588 30.3866 139.291 30.6176 139.093 30.9256C138.895 31.2116 138.796 31.5416 138.796 31.9156C138.796 32.3116 138.895 32.6526 139.093 32.9386C139.291 33.2246 139.566 33.4336 139.918 33.5656C140.27 33.6976 140.677 33.7636 141.139 33.7636ZM153.872 36.9316V20.2996H157.931L158.261 23.0056C158.767 22.0816 159.482 21.3336 160.406 20.7616C161.352 20.1896 162.485 19.9036 163.805 19.9036C165.169 19.9036 166.324 20.2006 167.27 20.7946C168.216 21.3666 168.931 22.2026 169.415 23.3026C169.921 24.4026 170.174 25.7556 170.174 27.3616V36.9316H165.587V27.7906C165.587 26.5146 165.312 25.5356 164.762 24.8536C164.234 24.1496 163.387 23.7976 162.221 23.7976C161.517 23.7976 160.879 23.9736 160.307 24.3256C159.735 24.6556 159.284 25.1396 158.954 25.7776C158.646 26.3936 158.492 27.1526 158.492 28.0546V36.9316H153.872ZM179.978 37.3276C178.614 37.3276 177.47 37.1076 176.546 36.6676C175.644 36.2056 174.973 35.6006 174.533 34.8526C174.115 34.0826 173.906 33.2356 173.906 32.3116C173.906 31.3216 174.159 30.4416 174.665 29.6716C175.171 28.9016 175.952 28.2966 177.008 27.8566C178.064 27.4166 179.384 27.1966 180.968 27.1966H185.06C185.06 26.4046 184.95 25.7556 184.73 25.2496C184.532 24.7216 184.202 24.3256 183.74 24.0616C183.3 23.7976 182.706 23.6656 181.958 23.6656C181.144 23.6656 180.451 23.8416 179.879 24.1936C179.329 24.5456 178.988 25.0736 178.856 25.7776H174.368C174.5 24.5896 174.896 23.5666 175.556 22.7086C176.216 21.8286 177.096 21.1466 178.196 20.6626C179.318 20.1566 180.583 19.9036 181.991 19.9036C183.553 19.9036 184.906 20.1676 186.05 20.6956C187.216 21.2236 188.107 21.9826 188.723 22.9726C189.361 23.9626 189.68 25.1836 189.68 26.6356V36.9316H185.786L185.258 34.4236C185.038 34.8636 184.752 35.2596 184.4 35.6116C184.07 35.9636 183.685 36.2716 183.245 36.5356C182.805 36.7776 182.31 36.9646 181.76 37.0966C181.232 37.2506 180.638 37.3276 179.978 37.3276ZM181.1 33.7636C181.65 33.7636 182.145 33.6756 182.585 33.4996C183.025 33.3016 183.399 33.0266 183.707 32.6746C184.015 32.3226 184.268 31.9266 184.466 31.4866C184.664 31.0246 184.796 30.5296 184.862 30.0016V29.9686H181.529C180.891 29.9686 180.363 30.0566 179.945 30.2326C179.549 30.3866 179.252 30.6176 179.054 30.9256C178.856 31.2116 178.757 31.5416 178.757 31.9156C178.757 32.3116 178.856 32.6526 179.054 32.9386C179.252 33.2246 179.527 33.4336 179.879 33.5656C180.231 33.6976 180.638 33.7636 181.1 33.7636ZM201.918 37.3276C200.246 37.3276 198.75 37.0416 197.43 36.4696C196.132 35.8976 195.098 35.0616 194.328 33.9616C193.558 32.8616 193.162 31.5306 193.14 29.9686H198.024C198.046 30.6286 198.211 31.2226 198.519 31.7506C198.849 32.2786 199.3 32.6966 199.872 33.0046C200.444 33.3126 201.115 33.4666 201.885 33.4666C202.567 33.4666 203.15 33.3566 203.634 33.1366C204.14 32.9166 204.525 32.6086 204.789 32.2126C205.075 31.8166 205.218 31.3326 205.218 30.7606C205.218 30.1446 205.053 29.6166 204.723 29.1766C204.415 28.7366 203.986 28.3626 203.436 28.0546C202.886 27.7466 202.248 27.4716 201.522 27.2296C200.818 26.9656 200.059 26.7016 199.245 26.4376C197.419 25.8436 196.022 25.0516 195.054 24.0616C194.108 23.0716 193.635 21.7516 193.635 20.1016C193.635 18.6936 193.965 17.4946 194.625 16.5046C195.307 15.5146 196.242 14.7556 197.43 14.2276C198.64 13.6996 200.004 13.4356 201.522 13.4356C203.084 13.4356 204.459 13.7106 205.647 14.2606C206.835 14.7886 207.77 15.5586 208.452 16.5706C209.156 17.5826 209.53 18.7816 209.574 20.1676H204.624C204.602 19.6616 204.459 19.1996 204.195 18.7816C203.931 18.3416 203.568 17.9896 203.106 17.7256C202.644 17.4616 202.094 17.3296 201.456 17.3296C200.906 17.3076 200.4 17.3956 199.938 17.5936C199.498 17.7696 199.146 18.0446 198.882 18.4186C198.618 18.7706 198.486 19.2216 198.486 19.7716C198.486 20.3216 198.618 20.7836 198.882 21.1576C199.146 21.5096 199.509 21.8176 199.971 22.0816C200.455 22.3456 201.016 22.5986 201.654 22.8406C202.292 23.0606 202.985 23.2916 203.733 23.5336C204.899 23.9296 205.966 24.4026 206.934 24.9526C207.902 25.4806 208.672 26.1736 209.244 27.0316C209.838 27.8896 210.135 29.0226 210.135 30.4306C210.135 31.6626 209.816 32.8066 209.178 33.8626C208.54 34.8966 207.616 35.7326 206.406 36.3706C205.196 37.0086 203.7 37.3276 201.918 37.3276ZM221.733 37.3276C220.149 37.3276 218.719 36.9646 217.443 36.2386C216.167 35.4906 215.155 34.4566 214.407 33.1366C213.681 31.8166 213.318 30.3206 213.318 28.6486C213.318 26.9326 213.681 25.4146 214.407 24.0946C215.155 22.7746 216.167 21.7516 217.443 21.0256C218.719 20.2776 220.16 19.9036 221.766 19.9036C223.372 19.9036 224.813 20.2776 226.089 21.0256C227.365 21.7516 228.366 22.7746 229.092 24.0946C229.84 25.3926 230.214 26.8996 230.214 28.6156C230.214 30.3316 229.84 31.8496 229.092 33.1696C228.344 34.4676 227.332 35.4906 226.056 36.2386C224.802 36.9646 223.361 37.3276 221.733 37.3276ZM221.733 33.3346C222.459 33.3346 223.097 33.1586 223.647 32.8066C224.197 32.4546 224.637 31.9266 224.967 31.2226C225.319 30.5186 225.495 29.6496 225.495 28.6156C225.495 27.5816 225.33 26.7126 225 26.0086C224.67 25.3046 224.219 24.7766 223.647 24.4246C223.097 24.0726 222.47 23.8966 221.766 23.8966C221.084 23.8966 220.457 24.0726 219.885 24.4246C219.313 24.7766 218.862 25.3046 218.532 26.0086C218.202 26.7126 218.037 27.5816 218.037 28.6156C218.037 29.6496 218.202 30.5186 218.532 31.2226C218.862 31.9266 219.302 32.4546 219.852 32.8066C220.424 33.1586 221.051 33.3346 221.733 33.3346ZM234.778 36.9316V18.9136C234.778 17.5056 235.02 16.3836 235.504 15.5476C235.988 14.7116 236.659 14.1066 237.517 13.7326C238.397 13.3586 239.431 13.1716 240.619 13.1716H242.698V17.0986H241.345C240.641 17.0986 240.135 17.2416 239.827 17.5276C239.541 17.7916 239.398 18.2536 239.398 18.9136V36.9316H234.778ZM232.534 24.1606V20.2996H242.929V24.1606H232.534ZM253.985 36.9316C252.797 36.9316 251.752 36.7446 250.85 36.3706C249.97 35.9966 249.288 35.3806 248.804 34.5226C248.32 33.6646 248.078 32.4986 248.078 31.0246V24.1606H245.207V20.2996H248.078L248.573 15.7126H252.698V20.2996H257.021V24.1606H252.698V31.0576C252.698 31.7836 252.852 32.2896 253.16 32.5756C253.49 32.8616 254.04 33.0046 254.81 33.0046H256.988V36.9316H253.985Z" fill="#00AFEF"/>
</svg>
