<svg width="170" height="34" viewBox="0 0 170 34" fill="none" xmlns="http://www.w3.org/2000/svg">
<path fill-rule="evenodd" clip-rule="evenodd" d="M24.8001 5.50526C25.6139 4.69096 26.9331 4.69096 27.7468 5.50526C28.5606 6.31905 28.5606 7.63818 27.7468 8.45197C26.9331 9.26576 25.6139 9.26576 24.8001 8.45197C23.9859 7.63824 23.9859 6.31905 24.8001 5.50526Z" fill="white"/>
<path fill-rule="evenodd" clip-rule="evenodd" d="M14.168 2.82974C14.168 1.67887 15.1007 0.746094 16.2519 0.746094C17.4028 0.746094 18.3356 1.67887 18.3356 2.82974C18.3356 3.98093 17.4027 4.91372 16.2519 4.91372C15.1007 4.91372 14.168 3.98087 14.168 2.82974Z" fill="white"/>
<path fill-rule="evenodd" clip-rule="evenodd" d="M4.75878 8.4549C3.94499 7.6411 3.94499 6.32198 4.75878 5.50819C5.57258 4.69389 6.89202 4.69389 7.70549 5.50819C8.51973 6.32198 8.51973 7.6411 7.70549 8.4549C6.89195 9.26869 5.57251 9.26869 4.75878 8.4549Z" fill="white"/>
<path fill-rule="evenodd" clip-rule="evenodd" d="M2.08397 19.0836C0.932779 19.0836 0 18.1509 0 16.9997C0 15.8488 0.932843 14.916 2.08397 14.916C3.23484 14.916 4.16763 15.8488 4.16763 16.9997C4.16769 18.1509 3.23484 19.0836 2.08397 19.0836Z" fill="white"/>
<path fill-rule="evenodd" clip-rule="evenodd" d="M7.70849 28.4932C6.89469 29.3067 5.57525 29.3067 4.76152 28.4932C3.94798 27.6794 3.94798 26.36 4.76152 25.5457C5.57531 24.7322 6.89476 24.7322 7.70849 25.5457C8.52247 26.36 8.52247 27.6794 7.70849 28.4932Z" fill="white"/>
<path fill-rule="evenodd" clip-rule="evenodd" d="M18.3377 31.1706C18.3377 32.3214 17.4046 33.2545 16.2538 33.2545C15.1029 33.2545 14.1699 32.3214 14.1699 31.1706C14.1699 30.0196 15.103 29.0869 16.2538 29.0869C17.4047 29.0869 18.3377 30.0196 18.3377 31.1706Z" fill="white"/>
<path fill-rule="evenodd" clip-rule="evenodd" d="M27.7469 25.5459C28.5607 26.3599 28.5607 27.6794 27.7469 28.4929C26.9331 29.3068 25.6137 29.3068 24.7999 28.4929C23.986 27.6793 23.986 26.3599 24.7999 25.5459C25.6137 24.7321 26.9332 24.7321 27.7469 25.5459Z" fill="white"/>
<path fill-rule="evenodd" clip-rule="evenodd" d="M30.4215 14.916C31.5725 14.916 32.5055 15.8491 32.5055 16.9999C32.5055 18.1509 31.5724 19.0836 30.4215 19.0836C29.2707 19.0836 28.3379 18.1509 28.3379 16.9999C28.3379 15.8491 29.2707 14.916 30.4215 14.916Z" fill="white"/>
<path fill-rule="evenodd" clip-rule="evenodd" d="M17.2585 11.9149L20.9803 15.6367H25.415C24.7572 11.2341 20.9601 7.85742 16.3747 7.85742C11.3261 7.85742 7.2334 11.9501 7.2334 16.9987C7.2334 22.0473 11.3261 26.1396 16.3747 26.1396C20.96 26.1396 24.7566 22.7632 25.4145 18.3609H20.9798L17.2584 22.0823C16.772 22.5687 15.9768 22.5687 15.4904 22.0823L11.2908 17.8828C10.8043 17.3962 10.8043 16.6009 11.2908 16.1144L15.4904 11.9149C15.9769 11.4284 16.772 11.4284 17.2585 11.9149Z" fill="white"/>
<path d="M50.1304 24.752C48.6604 24.752 47.3934 24.437 46.3294 23.807C45.2654 23.163 44.4464 22.274 43.8724 21.14C43.2984 19.992 43.0114 18.669 43.0114 17.171C43.0114 15.673 43.2984 14.35 43.8724 13.202C44.4464 12.054 45.2654 11.158 46.3294 10.514C47.3934 9.87 48.6604 9.548 50.1304 9.548C51.9084 9.548 53.3714 9.996 54.5194 10.892C55.6674 11.788 56.3814 13.048 56.6614 14.672H53.4274C53.2594 13.888 52.8884 13.286 52.3144 12.866C51.7544 12.432 51.0124 12.215 50.0884 12.215C49.2344 12.215 48.4994 12.418 47.8834 12.824C47.2814 13.216 46.8194 13.783 46.4974 14.525C46.1754 15.267 46.0144 16.149 46.0144 17.171C46.0144 18.193 46.1754 19.075 46.4974 19.817C46.8194 20.545 47.2814 21.112 47.8834 21.518C48.4994 21.91 49.2344 22.106 50.0884 22.106C51.0124 22.106 51.7544 21.91 52.3144 21.518C52.8744 21.112 53.2454 20.552 53.4274 19.838H56.6614C56.3814 21.364 55.6674 22.568 54.5194 23.45C53.3714 24.318 51.9084 24.752 50.1304 24.752ZM64.0163 24.752C63.0083 24.752 62.0983 24.521 61.2863 24.059C60.4743 23.583 59.8303 22.925 59.3543 22.085C58.8923 21.245 58.6613 20.293 58.6613 19.229C58.6613 18.137 58.8923 17.171 59.3543 16.331C59.8303 15.491 60.4743 14.84 61.2863 14.378C62.0983 13.902 63.0153 13.664 64.0373 13.664C65.0593 13.664 65.9763 13.902 66.7883 14.378C67.6003 14.84 68.2373 15.491 68.6993 16.331C69.1753 17.157 69.4133 18.116 69.4133 19.208C69.4133 20.3 69.1753 21.266 68.6993 22.106C68.2233 22.932 67.5793 23.583 66.7673 24.059C65.9693 24.521 65.0523 24.752 64.0163 24.752ZM64.0163 22.211C64.4783 22.211 64.8843 22.099 65.2343 21.875C65.5843 21.651 65.8643 21.315 66.0743 20.867C66.2983 20.419 66.4103 19.866 66.4103 19.208C66.4103 18.55 66.3053 17.997 66.0953 17.549C65.8853 17.101 65.5983 16.765 65.2343 16.541C64.8843 16.317 64.4853 16.205 64.0373 16.205C63.6033 16.205 63.2043 16.317 62.8403 16.541C62.4763 16.765 62.1893 17.101 61.9793 17.549C61.7693 17.997 61.6643 18.55 61.6643 19.208C61.6643 19.866 61.7693 20.419 61.9793 20.867C62.1893 21.315 62.4693 21.651 62.8193 21.875C63.1833 22.099 63.5823 22.211 64.0163 22.211ZM71.8557 24.5V13.916H74.4597L74.7327 15.869C74.9987 15.407 75.3207 15.015 75.6987 14.693C76.0767 14.371 76.5177 14.119 77.0217 13.937C77.5257 13.755 78.0717 13.664 78.6597 13.664V16.772H77.6727C77.2527 16.772 76.8607 16.821 76.4967 16.919C76.1467 17.017 75.8387 17.178 75.5727 17.402C75.3207 17.612 75.1247 17.906 74.9847 18.284C74.8587 18.648 74.7957 19.11 74.7957 19.67V24.5H71.8557ZM85.3605 24.5C84.6045 24.5 83.9395 24.381 83.3655 24.143C82.8055 23.905 82.3715 23.513 82.0635 22.967C81.7555 22.421 81.6015 21.679 81.6015 20.741V16.373H79.7745V13.916H81.6015L81.9165 10.997H84.5415V13.916H87.2925V16.373H84.5415V20.762C84.5415 21.224 84.6395 21.546 84.8355 21.728C85.0455 21.91 85.3955 22.001 85.8855 22.001H87.2715V24.5H85.3605ZM93.2675 24.752C92.3995 24.752 91.6715 24.612 91.0835 24.332C90.5095 24.038 90.0825 23.653 89.8025 23.177C89.5365 22.687 89.4035 22.148 89.4035 21.56C89.4035 20.93 89.5645 20.37 89.8865 19.88C90.2085 19.39 90.7055 19.005 91.3775 18.725C92.0495 18.445 92.8895 18.305 93.8975 18.305H96.5015C96.5015 17.801 96.4315 17.388 96.2915 17.066C96.1655 16.73 95.9555 16.478 95.6615 16.31C95.3815 16.142 95.0035 16.058 94.5275 16.058C94.0095 16.058 93.5685 16.17 93.2045 16.394C92.8545 16.618 92.6375 16.954 92.5535 17.402H89.6975C89.7815 16.646 90.0335 15.995 90.4535 15.449C90.8735 14.889 91.4335 14.455 92.1335 14.147C92.8475 13.825 93.6525 13.664 94.5485 13.664C95.5425 13.664 96.4035 13.832 97.1315 14.168C97.8735 14.504 98.4405 14.987 98.8325 15.617C99.2385 16.247 99.4415 17.024 99.4415 17.948V24.5H96.9635L96.6275 22.904C96.4875 23.184 96.3055 23.436 96.0815 23.66C95.8715 23.884 95.6265 24.08 95.3465 24.248C95.0665 24.402 94.7515 24.521 94.4015 24.605C94.0655 24.703 93.6875 24.752 93.2675 24.752ZM93.9815 22.484C94.3315 22.484 94.6465 22.428 94.9265 22.316C95.2065 22.19 95.4445 22.015 95.6405 21.791C95.8365 21.567 95.9975 21.315 96.1235 21.035C96.2495 20.741 96.3335 20.426 96.3755 20.09V20.069H94.2545C93.8485 20.069 93.5125 20.125 93.2465 20.237C92.9945 20.335 92.8055 20.482 92.6795 20.678C92.5535 20.86 92.4905 21.07 92.4905 21.308C92.4905 21.56 92.5535 21.777 92.6795 21.959C92.8055 22.141 92.9805 22.274 93.2045 22.358C93.4285 22.442 93.6875 22.484 93.9815 22.484ZM102.084 24.5V13.916H104.667L104.877 15.638C105.199 15.05 105.654 14.574 106.242 14.21C106.844 13.846 107.565 13.664 108.405 13.664C109.273 13.664 110.008 13.853 110.61 14.231C111.212 14.595 111.667 15.127 111.975 15.827C112.297 16.527 112.458 17.388 112.458 18.41V24.5H109.539V18.683C109.539 17.871 109.364 17.248 109.014 16.814C108.678 16.366 108.139 16.142 107.397 16.142C106.949 16.142 106.543 16.254 106.179 16.478C105.815 16.688 105.528 16.996 105.318 17.402C105.122 17.794 105.024 18.277 105.024 18.851V24.5H102.084ZM118.697 24.752C117.829 24.752 117.101 24.612 116.513 24.332C115.939 24.038 115.512 23.653 115.232 23.177C114.966 22.687 114.833 22.148 114.833 21.56C114.833 20.93 114.994 20.37 115.316 19.88C115.638 19.39 116.135 19.005 116.807 18.725C117.479 18.445 118.319 18.305 119.327 18.305H121.931C121.931 17.801 121.861 17.388 121.721 17.066C121.595 16.73 121.385 16.478 121.091 16.31C120.811 16.142 120.433 16.058 119.957 16.058C119.439 16.058 118.998 16.17 118.634 16.394C118.284 16.618 118.067 16.954 117.983 17.402H115.127C115.211 16.646 115.463 15.995 115.883 15.449C116.303 14.889 116.863 14.455 117.563 14.147C118.277 13.825 119.082 13.664 119.978 13.664C120.972 13.664 121.833 13.832 122.561 14.168C123.303 14.504 123.87 14.987 124.262 15.617C124.668 16.247 124.871 17.024 124.871 17.948V24.5H122.393L122.057 22.904C121.917 23.184 121.735 23.436 121.511 23.66C121.301 23.884 121.056 24.08 120.776 24.248C120.496 24.402 120.181 24.521 119.831 24.605C119.495 24.703 119.117 24.752 118.697 24.752ZM119.411 22.484C119.761 22.484 120.076 22.428 120.356 22.316C120.636 22.19 120.874 22.015 121.07 21.791C121.266 21.567 121.427 21.315 121.553 21.035C121.679 20.741 121.763 20.426 121.805 20.09V20.069H119.684C119.278 20.069 118.942 20.125 118.676 20.237C118.424 20.335 118.235 20.482 118.109 20.678C117.983 20.86 117.92 21.07 117.92 21.308C117.92 21.56 117.983 21.777 118.109 21.959C118.235 22.141 118.41 22.274 118.634 22.358C118.858 22.442 119.117 22.484 119.411 22.484ZM132.659 24.752C131.595 24.752 130.643 24.57 129.803 24.206C128.977 23.842 128.319 23.31 127.829 22.61C127.339 21.91 127.087 21.063 127.073 20.069H130.181C130.195 20.489 130.3 20.867 130.496 21.203C130.706 21.539 130.993 21.805 131.357 22.001C131.721 22.197 132.148 22.295 132.638 22.295C133.072 22.295 133.443 22.225 133.751 22.085C134.073 21.945 134.318 21.749 134.486 21.497C134.668 21.245 134.759 20.937 134.759 20.573C134.759 20.181 134.654 19.845 134.444 19.565C134.248 19.285 133.975 19.047 133.625 18.851C133.275 18.655 132.869 18.48 132.407 18.326C131.959 18.158 131.476 17.99 130.958 17.822C129.796 17.444 128.907 16.94 128.291 16.31C127.689 15.68 127.388 14.84 127.388 13.79C127.388 12.894 127.598 12.131 128.018 11.501C128.452 10.871 129.047 10.388 129.803 10.052C130.573 9.716 131.441 9.548 132.407 9.548C133.401 9.548 134.276 9.723 135.032 10.073C135.788 10.409 136.383 10.899 136.817 11.543C137.265 12.187 137.503 12.95 137.531 13.832H134.381C134.367 13.51 134.276 13.216 134.108 12.95C133.94 12.67 133.709 12.446 133.415 12.278C133.121 12.11 132.771 12.026 132.365 12.026C132.015 12.012 131.693 12.068 131.399 12.194C131.119 12.306 130.895 12.481 130.727 12.719C130.559 12.943 130.475 13.23 130.475 13.58C130.475 13.93 130.559 14.224 130.727 14.462C130.895 14.686 131.126 14.882 131.42 15.05C131.728 15.218 132.085 15.379 132.491 15.533C132.897 15.673 133.338 15.82 133.814 15.974C134.556 16.226 135.235 16.527 135.851 16.877C136.467 17.213 136.957 17.654 137.321 18.2C137.699 18.746 137.888 19.467 137.888 20.363C137.888 21.147 137.685 21.875 137.279 22.547C136.873 23.205 136.285 23.737 135.515 24.143C134.745 24.549 133.793 24.752 132.659 24.752ZM145.268 24.752C144.26 24.752 143.35 24.521 142.538 24.059C141.726 23.583 141.082 22.925 140.606 22.085C140.144 21.245 139.913 20.293 139.913 19.229C139.913 18.137 140.144 17.171 140.606 16.331C141.082 15.491 141.726 14.84 142.538 14.378C143.35 13.902 144.267 13.664 145.289 13.664C146.311 13.664 147.228 13.902 148.04 14.378C148.852 14.84 149.489 15.491 149.951 16.331C150.427 17.157 150.665 18.116 150.665 19.208C150.665 20.3 150.427 21.266 149.951 22.106C149.475 22.932 148.831 23.583 148.019 24.059C147.221 24.521 146.304 24.752 145.268 24.752ZM145.268 22.211C145.73 22.211 146.136 22.099 146.486 21.875C146.836 21.651 147.116 21.315 147.326 20.867C147.55 20.419 147.662 19.866 147.662 19.208C147.662 18.55 147.557 17.997 147.347 17.549C147.137 17.101 146.85 16.765 146.486 16.541C146.136 16.317 145.737 16.205 145.289 16.205C144.855 16.205 144.456 16.317 144.092 16.541C143.728 16.765 143.441 17.101 143.231 17.549C143.021 17.997 142.916 18.55 142.916 19.208C142.916 19.866 143.021 20.419 143.231 20.867C143.441 21.315 143.721 21.651 144.071 21.875C144.435 22.099 144.834 22.211 145.268 22.211ZM153.57 24.5V13.034C153.57 12.138 153.724 11.424 154.032 10.892C154.34 10.36 154.767 9.975 155.313 9.737C155.873 9.499 156.531 9.38 157.287 9.38H158.61V11.879H157.749C157.301 11.879 156.979 11.97 156.783 12.152C156.601 12.32 156.51 12.614 156.51 13.034V24.5H153.57ZM152.142 16.373V13.916H158.757V16.373H152.142ZM165.792 24.5C165.036 24.5 164.371 24.381 163.797 24.143C163.237 23.905 162.803 23.513 162.495 22.967C162.187 22.421 162.033 21.679 162.033 20.741V16.373H160.206V13.916H162.033L162.348 10.997H164.973V13.916H167.724V16.373H164.973V20.762C164.973 21.224 165.071 21.546 165.267 21.728C165.477 21.91 165.827 22.001 166.317 22.001H167.703V24.5H165.792Z" fill="white"/>
</svg>
