<?xml version="1.0" encoding="UTF-8"?>
<!DOCTYPE svg PUBLIC "-//W3C//DTD SVG 1.1//EN" "http://www.w3.org/Graphics/SVG/1.1/DTD/svg11.dtd">
<!-- Creator: CorelDRAW 2020 (64-Bit Evaluation Version) -->
<svg xmlns="http://www.w3.org/2000/svg" xml:space="preserve" width="5.99568in" height="5.99636in" version="1.1" style="shape-rendering:geometricPrecision; text-rendering:geometricPrecision; image-rendering:optimizeQuality; fill-rule:evenodd; clip-rule:evenodd"
viewBox="0 0 5999.55 6000.24"
 xmlns:xlink="http://www.w3.org/1999/xlink"
 xmlns:xodm="http://www.corel.com/coreldraw/odm/2003">
 <defs>
  <style type="text/css">
   <![CDATA[
    .fil8 {fill:none}
    .fil2 {fill:none;fill-rule:nonzero}
    .fil5 {fill:#D9DADA}
    .fil6 {fill:#727271}
    .fil1 {fill:#393185}
    .fil7 {fill:#FEFEFE;fill-rule:nonzero}
    .fil9 {fill:#251F32;fill-rule:nonzero}
    .fil4 {fill:#748BF8;fill-rule:nonzero}
    .fil3 {fill:url(#id10);fill-rule:nonzero}
    .fil0 {fill:url(#id11);fill-rule:nonzero}
   ]]>
  </style>
     <clipPath id="id0" style="clip-rule:nonzero">
      <path d="M2997.87 0.01c0.14,0 50.36,-1.16 205.57,59.36 55.95,21.81 426.92,157.13 785.6,287.95 349.83,127.61 688.31,251.07 716.99,262.46 199.6,79.26 201.2,165.84 204.09,321.7l0.14 7.47 0 2.25c0.5,99.78 1.94,202.94 3.37,306.06 9.01,649.1 18.01,1296.83 -199.15,1815.77 -93.03,222.32 -243.78,409.68 -413.63,565.4 -162.36,148.86 -344.22,269.8 -507.69,364.2 -400.1,231.02 -568.9,357.94 -655.64,423.15l0 0.67 -0.04 0.03 0.03 0.04c-3.12,2.36 -1.04,0.81 0,0l-0.03 -0.04c-1.72,1.23 -8.23,6.01 -27.2,20.07 -38.71,23.35 -81.45,56.91 -119.18,83.44l-110.61 -86.44 0.16 -0.2c-15.67,-11.61 -21.31,-15.74 -22.88,-16.87l-0.03 0.04c1.04,0.8 3.12,2.37 -0.01,0.01l0.04 -0.05 -0.04 -0.03 0 -0.67c-86.74,-65.21 -255.54,-192.13 -655.64,-423.15 -163.48,-94.39 -345.33,-215.34 -507.69,-364.2 -169.85,-155.72 -320.6,-343.08 -413.63,-565.4 -217.16,-518.93 -208.16,-1166.66 -199.15,-1815.77 1.43,-103.12 2.87,-206.27 3.37,-306.06l0 -2.25 0.14 -7.47c2.89,-155.86 4.49,-242.44 204.09,-321.7 28.69,-11.39 367.17,-134.85 716.99,-262.46 358.68,-130.82 729.65,-266.14 785.6,-287.95 155.22,-60.52 205.44,-59.36 205.58,-59.36l0.47 0zm-0.24 385.69c-272.03,120.69 -580.88,218.97 -861.62,321.37 -286.91,104.65 -565.67,206.33 -670.65,245.75 -0.56,100.97 -1.94,199.97 -3.31,298.93 -8.47,609.58 -16.91,1217.86 169.31,1662.88 68.67,164.12 185.8,307.79 319.64,430.49 141.34,129.58 299.01,234.5 440.56,316.23 315.95,182.44 496.45,304.37 606.07,383.35 109.62,-78.98 290.12,-200.91 606.07,-383.35 141.55,-81.73 299.23,-186.65 440.56,-316.23 133.84,-122.71 250.97,-266.38 319.64,-430.49 186.22,-445.02 177.78,-1053.3 169.31,-1662.88 -1.37,-98.96 -2.75,-197.96 -3.31,-298.93 -104.99,-39.42 -383.74,-141.1 -670.65,-245.75 -280.73,-102.4 -589.6,-200.68 -861.62,-321.37zm0 -1.95l0.12 -0.01 -0.24 0 0.12 0.01zm139.89 4032.69l0 0.06c0.52,-0.39 0.76,-0.6 0,-0.06zm-279.79 0c-0.76,-0.54 -0.51,-0.33 0,0.06l0 -0.06z"/>
     </clipPath>
       <mask id="id1">
  <linearGradient id="id2" gradientUnits="userSpaceOnUse" x1="-310.38" y1="1452.44" x2="2769.2" y2="-127.63">
   <stop offset="0" style="stop-opacity:1; stop-color:white"/>
   <stop offset="1" style="stop-opacity:0; stop-color:white"/>
  </linearGradient>
        <rect style="fill:url(#id2)" x="892.38" y="-239.52" width="2104.51" height="1202.36"/>
       </mask>
       <mask id="id3">
  <linearGradient id="id4" gradientUnits="userSpaceOnUse" x1="6293.9" y1="1459.7" x2="3214.32" y2="-120.37">
   <stop offset="0" style="stop-opacity:1; stop-color:white"/>
   <stop offset="1" style="stop-opacity:0; stop-color:white"/>
  </linearGradient>
        <rect style="fill:url(#id4)" x="2986.62" y="-232.26" width="2104.51" height="1202.37"/>
       </mask>
       <mask id="id5">
  <linearGradient id="id6" gradientUnits="userSpaceOnUse" x1="2022.21" y1="4578.99" x2="4411.17" y2="3838.16">
   <stop offset="0" style="stop-opacity:1; stop-color:white"/>
   <stop offset="1" style="stop-opacity:0; stop-color:white"/>
  </linearGradient>
        <rect style="fill:url(#id6)" x="2988.69" y="3204.47" width="1418.91" height="1338.31"/>
       </mask>
     <clipPath id="id7">
      <path d="M2997.82 627.17c0,0 13.39,-0.71 107.8,36.11 94.42,36.81 1114.98,406.8 1181.6,433.26 66.62,26.45 65.02,59.74 66.23,121.05 1.36,271.32 10.9,547.94 0.99,810.86 -224.14,-319.08 -605.71,-615.36 -975.68,-704.47 -550.28,-132.53 -985.51,284.12 -534.19,471.09 175.6,72.75 584.81,105.47 792.88,128.14 203.95,22.22 289.04,37.43 483.66,136.94 81.36,41.59 163.83,96.02 221.7,164.22 -18.48,219.2 -56.52,424.71 -131.72,604.43 -127.29,304.19 -421.71,521.12 -661.81,659.76 -357.36,206.35 -487.65,310.89 -551.62,358.29l-0.02 0.01 -0.02 -0.01c-63.97,-47.4 -194.26,-151.94 -551.62,-358.29 -240.1,-138.64 -534.52,-355.57 -661.81,-659.76 -96.87,-231.5 -132.06,-505.79 -143.23,-797.01 324.76,642.36 795.4,768.59 1375.57,976.24 181.06,-127.81 412.28,-433.73 -27.55,-537.29 -423.95,-62.93 -647.84,-127.31 -846.83,-218.17 -419.94,-180.99 -492,-562.15 -504.36,-689.59 1.41,-115.12 3.45,-230.73 4.03,-345.39 1.21,-61.32 -0.39,-94.6 66.23,-121.05 66.62,-26.45 1087.19,-396.44 1181.6,-433.26 94.42,-36.82 107.8,-36.11 107.8,-36.11l0.37 0z"/>
     </clipPath>
       <mask id="id8">
  <linearGradient id="id9" gradientUnits="userSpaceOnUse" x1="1468.53" y1="2251.32" x2="4278.47" y2="2241.32">
   <stop offset="0" style="stop-opacity:1; stop-color:white"/>
   <stop offset="0.368627" style="stop-opacity:0.501961; stop-color:white"/>
   <stop offset="1" style="stop-opacity:0; stop-color:white"/>
  </linearGradient>
        <rect style="fill:url(#id9)" x="2997.77" y="170.76" width="2366.44" height="4237.69"/>
       </mask>
  <linearGradient id="id10" gradientUnits="userSpaceOnUse" x1="3006.25" y1="-901.55" x2="2991.48" y2="3375.93">
   <stop offset="0" style="stop-opacity:1; stop-color:#4F63AA"/>
   <stop offset="0.309804" style="stop-opacity:1; stop-color:#676AAD"/>
   <stop offset="1" style="stop-opacity:1; stop-color:#30295B"/>
  </linearGradient>
  <linearGradient id="id11" gradientUnits="userSpaceOnUse" x1="3473.08" y1="798.53" x2="3494.18" y2="3838.18">
   <stop offset="0" style="stop-opacity:1; stop-color:#262E57"/>
   <stop offset="1" style="stop-opacity:1; stop-color:#110526"/>
  </linearGradient>
 </defs>
 <g id="Layer_x0020_1">
  <metadata id="CorelCorpID_0Corel-Layer"/>
  <g id="_2094589187008">
   <g>
    <path class="fil0" d="M2997.87 0.01c0.14,0 50.36,-1.16 205.57,59.36 55.95,21.81 426.92,157.13 785.6,287.95 349.83,127.61 688.31,251.07 716.99,262.46 199.6,79.26 201.2,165.84 204.09,321.7l0.14 7.47 0 2.25c0.5,99.78 1.94,202.94 3.37,306.06 9.01,649.1 18.01,1296.83 -199.15,1815.77 -93.03,222.32 -243.78,409.68 -413.63,565.4 -162.36,148.86 -344.22,269.8 -507.69,364.2 -400.1,231.02 -568.9,357.94 -655.64,423.15l0 0.67 -0.04 0.03 0.03 0.04c-3.12,2.36 -1.04,0.81 0,0l-0.03 -0.04c-1.72,1.23 -8.23,6.01 -27.2,20.07 -38.71,23.35 -81.45,56.91 -119.18,83.44l-110.61 -86.44 0.16 -0.2c-15.67,-11.61 -21.31,-15.74 -22.88,-16.87l-0.03 0.04c1.04,0.8 3.12,2.37 -0.01,0.01l0.04 -0.05 -0.04 -0.03 0 -0.67c-86.74,-65.21 -255.54,-192.13 -655.64,-423.15 -163.48,-94.39 -345.33,-215.34 -507.69,-364.2 -169.85,-155.72 -320.6,-343.08 -413.63,-565.4 -217.16,-518.93 -208.16,-1166.66 -199.15,-1815.77 1.43,-103.12 2.87,-206.27 3.37,-306.06l0 -2.25 0.14 -7.47c2.89,-155.86 4.49,-242.44 204.09,-321.7 28.69,-11.39 367.17,-134.85 716.99,-262.46 358.68,-130.82 729.65,-266.14 785.6,-287.95 155.22,-60.52 205.44,-59.36 205.58,-59.36l0.47 0zm-0.24 385.69c-272.03,120.69 -580.88,218.97 -861.62,321.37 -286.91,104.65 -565.67,206.33 -670.65,245.75 -0.56,100.97 -1.94,199.97 -3.31,298.93 -8.47,609.58 -16.91,1217.86 169.31,1662.88 68.67,164.12 185.8,307.79 319.64,430.49 141.34,129.58 299.01,234.5 440.56,316.23 315.95,182.44 496.45,304.37 606.07,383.35 109.62,-78.98 290.12,-200.91 606.07,-383.35 141.55,-81.73 299.23,-186.65 440.56,-316.23 133.84,-122.71 250.97,-266.38 319.64,-430.49 186.22,-445.02 177.78,-1053.3 169.31,-1662.88 -1.37,-98.96 -2.75,-197.96 -3.31,-298.93 -104.99,-39.42 -383.74,-141.1 -670.65,-245.75 -280.73,-102.4 -589.6,-200.68 -861.62,-321.37zm0 -1.95l0.12 -0.01 -0.24 0 0.12 0.01zm139.89 4032.69l0 0.06c0.52,-0.39 0.76,-0.6 0,-0.06zm-279.79 0c-0.76,-0.54 -0.51,-0.33 0,0.06l0 -0.06z"/>
    <g style="clip-path:url(#id0)">
     <g>
      <polygon id="1" class="fil1" style="mask:url(#id1)" points="895.86,595.72 2993.43,-236.04 2988.38,402.03 1458.47,959.38 "/>
      <polygon class="fil1" style="mask:url(#id3)" points="5087.65,602.98 2990.1,-228.79 2995.14,409.28 4525.06,966.63 "/>
      <polygon class="fil1" style="mask:url(#id5)" points="4404.12,3946.68 2992.17,4539.31 2993.37,3986.15 4245.45,3207.95 "/>
     </g>
    </g>
    <path class="fil2" d="M2997.87 0.01c0.14,0 50.36,-1.16 205.57,59.36 55.95,21.81 426.92,157.13 785.6,287.95 349.83,127.61 688.31,251.07 716.99,262.46 199.6,79.26 201.2,165.84 204.09,321.7l0.14 7.47 0 2.25c0.5,99.78 1.94,202.94 3.37,306.06 9.01,649.1 18.01,1296.83 -199.15,1815.77 -93.03,222.32 -243.78,409.68 -413.63,565.4 -162.36,148.86 -344.22,269.8 -507.69,364.2 -400.1,231.02 -568.9,357.94 -655.64,423.15l0 0.67 -0.04 0.03 0.03 0.04c-3.12,2.36 -1.04,0.81 0,0l-0.03 -0.04c-1.72,1.23 -8.23,6.01 -27.2,20.07 -38.71,23.35 -81.45,56.91 -119.18,83.44l-110.61 -86.44 0.16 -0.2c-15.67,-11.61 -21.31,-15.74 -22.88,-16.87l-0.03 0.04c1.04,0.8 3.12,2.37 -0.01,0.01l0.04 -0.05 -0.04 -0.03 0 -0.67c-86.74,-65.21 -255.54,-192.13 -655.64,-423.15 -163.48,-94.39 -345.33,-215.34 -507.69,-364.2 -169.85,-155.72 -320.6,-343.08 -413.63,-565.4 -217.16,-518.93 -208.16,-1166.66 -199.15,-1815.77 1.43,-103.12 2.87,-206.27 3.37,-306.06l0 -2.25 0.14 -7.47c2.89,-155.86 4.49,-242.44 204.09,-321.7 28.69,-11.39 367.17,-134.85 716.99,-262.46 358.68,-130.82 729.65,-266.14 785.6,-287.95 155.22,-60.52 205.44,-59.36 205.58,-59.36l0.47 0zm-0.24 385.69c-272.03,120.69 -580.88,218.97 -861.62,321.37 -286.91,104.65 -565.67,206.33 -670.65,245.75 -0.56,100.97 -1.94,199.97 -3.31,298.93 -8.47,609.58 -16.91,1217.86 169.31,1662.88 68.67,164.12 185.8,307.79 319.64,430.49 141.34,129.58 299.01,234.5 440.56,316.23 315.95,182.44 496.45,304.37 606.07,383.35 109.62,-78.98 290.12,-200.91 606.07,-383.35 141.55,-81.73 299.23,-186.65 440.56,-316.23 133.84,-122.71 250.97,-266.38 319.64,-430.49 186.22,-445.02 177.78,-1053.3 169.31,-1662.88 -1.37,-98.96 -2.75,-197.96 -3.31,-298.93 -104.99,-39.42 -383.74,-141.1 -670.65,-245.75 -280.73,-102.4 -589.6,-200.68 -861.62,-321.37zm0 -1.95l0.12 -0.01 -0.24 0 0.12 0.01zm139.89 4032.69l0 0.06c0.52,-0.39 0.76,-0.6 0,-0.06zm-279.79 0c-0.76,-0.54 -0.51,-0.33 0,0.06l0 -0.06z"/>
    <path class="fil3" d="M3066.2 427.35c-50.43,-19.66 -65.01,-27.38 -68.56,-30.42 -3.56,3.03 -18.13,10.76 -68.56,30.42 -66.92,26.09 -436.11,160.76 -793.06,290.96 -286.91,104.65 -565.66,206.33 -670.65,245.75 -0.56,100.97 -1.94,199.97 -3.31,298.93 -8.47,609.58 -16.91,1217.86 169.31,1662.88 68.67,164.11 185.8,307.79 319.64,430.49 141.34,129.58 299.02,234.51 440.56,316.23 315.95,182.44 487.28,305.84 596.89,384.82 109.62,-78.98 299.29,-202.37 615.25,-384.82 141.55,-81.73 299.23,-186.65 440.56,-316.23 133.84,-122.7 250.97,-266.38 319.64,-430.49 186.22,-445.02 177.78,-1053.3 169.31,-1662.88 -1.37,-98.96 -2.75,-197.96 -3.32,-298.93 -104.98,-39.42 -383.74,-141.09 -670.65,-245.75 -356.95,-130.2 -726.14,-264.87 -793.06,-290.96zm-68.56 -32.37l0.12 -0 -0.24 0 0.12 0z"/>
    <path class="fil4" d="M2997.63 428.69c-114.05,47.8 -230.83,88.7 -346.91,131.21 -145.27,53.2 -326.82,119.42 -505.29,184.52l-3.72 1.36c-271.48,99.02 -535.03,195.16 -648.85,237.61 -0.62,93.21 -1.88,184.5 -3.14,275.73l-0.05 3.87 0.1 0 -0.11 0.35c-8.42,606.71 -16.83,1212.12 167.15,1651.76 33.33,79.67 78.61,154.61 131.92,224.68 53.49,70.32 115.11,135.69 180.9,196.01 70.01,64.19 143.79,122.07 217.38,173.88 74.09,52.16 148.2,98.4 218.3,138.87 158.46,91.5 282.93,167.81 381.5,231.13 90.48,58.12 154.75,104.76 207.09,142.07 52.34,-37.32 124.06,-83.95 214.54,-142.07 98.57,-63.32 223.04,-139.63 381.5,-231.13 70.1,-40.47 144.21,-86.71 218.3,-138.87 73.6,-51.81 147.37,-109.69 217.38,-173.88 65.79,-60.32 127.41,-125.7 180.9,-196.01 53.31,-70.08 98.58,-145.01 131.92,-224.68 183.97,-439.63 175.57,-1045.02 167.15,-1651.7l-0.11 -0.41 0.1 0 -0.02 -1.67c-1.27,-91.95 -2.55,-183.97 -3.17,-277.92 -114.18,-42.58 -379.01,-139.18 -651.39,-238.54l-1.18 -0.43c-178.47,-65.1 -360.01,-131.32 -505.29,-184.52 -116.08,-42.51 -232.85,-83.42 -346.91,-131.21zm365.76 78.98c145.27,53.2 326.82,119.42 505.29,184.51l1.19 0.43c285.28,104.06 562.22,205.07 669.69,245.43l17.87 6.71 0.11 19.19c0.56,99.92 1.92,198.36 3.29,296.72l0.03 1.99 0.11 0.41 -0.11 0c8.5,612.31 16.94,1223.29 -171.48,1673.57 -35.33,84.45 -82.96,163.41 -138.85,236.87 -55.69,73.22 -119.57,141.04 -187.61,203.41 -71.31,65.38 -147.06,124.77 -223.02,178.24 -75.46,53.12 -150.98,100.23 -222.42,141.49 -157.49,90.93 -281.26,166.82 -379.33,229.81 -81.86,52.59 -165.27,106.9 -244.22,163.74 -78.95,-56.84 -154.9,-111.15 -236.77,-163.74 -98.07,-62.99 -221.84,-138.88 -379.33,-229.81 -71.44,-41.25 -146.95,-88.36 -222.42,-141.49 -75.95,-53.47 -151.7,-112.85 -223.02,-178.24 -68.04,-62.38 -131.92,-130.2 -187.62,-203.41 -55.88,-73.46 -103.52,-152.42 -138.85,-236.87 -188.43,-450.29 -179.98,-1061.3 -171.48,-1673.64l-0.11 0 0.11 -0.35 0.06 -4.2c1.35,-97.63 2.7,-195.35 3.26,-294.51l0.11 -19.19 17.87 -6.71c107.15,-40.24 382.77,-140.77 667.14,-244.5l3.72 -1.36c178.47,-65.1 360.02,-131.32 505.29,-184.51 122.61,-44.91 244.57,-89.09 365.76,-137.65 122.07,46.07 242.94,92.68 365.75,137.65z"/>
    <path class="fil5" d="M2997.82 627.17c0,0 13.39,-0.71 107.8,36.11 94.42,36.81 1114.98,406.8 1181.6,433.26 66.62,26.45 65.02,59.74 66.23,121.05 1.36,271.32 10.9,547.94 0.99,810.86 -224.14,-319.08 -605.71,-615.36 -975.68,-704.47 -550.28,-132.53 -985.51,284.12 -534.19,471.09 175.6,72.75 584.81,105.47 792.88,128.14 203.95,22.22 289.04,37.43 483.66,136.94 81.36,41.59 163.83,96.02 221.7,164.22 -18.48,219.2 -56.52,424.71 -131.72,604.43 -127.29,304.19 -421.71,521.12 -661.81,659.76 -357.36,206.35 -487.65,310.89 -551.62,358.29l-0.02 0.01 -0.02 -0.01c-63.97,-47.4 -194.26,-151.94 -551.62,-358.29 -240.1,-138.64 -534.52,-355.57 -661.81,-659.76 -96.87,-231.5 -132.06,-505.79 -143.23,-797.01 324.76,642.36 795.4,768.59 1375.57,976.24 181.06,-127.81 412.28,-433.73 -27.55,-537.29 -423.95,-62.93 -647.84,-127.31 -846.83,-218.17 -419.94,-180.99 -492,-562.15 -504.36,-689.59 1.41,-115.12 3.45,-230.73 4.03,-345.39 1.21,-61.32 -0.39,-94.6 66.23,-121.05 66.62,-26.45 1087.19,-396.44 1181.6,-433.26 94.42,-36.82 107.8,-36.11 107.8,-36.11l0.37 0z"/>
    <g style="clip-path:url(#id7)">
     <g>
      <polygon id="1" class="fil6" style="mask:url(#id8)" points="3001.24,4404.97 3001.24,174.23 5360.74,174.23 5360.74,4404.97 "/>
      <path class="fil7" d="M2999.77 538.73c0.08,0 28.89,-0.83 139.68,42.37 45.85,17.88 337.48,124.25 619.48,227.11 272.52,99.4 536.18,195.57 562.81,206.15 119.16,47.31 120.14,100.65 121.93,196.68l0.11 6.91c0.39,79.32 1.52,160.43 2.64,241.49 2.68,193.45 5.36,386.75 -1.65,572.85l-134.5 40.19c37.37,28.3 72.06,59.83 101.72,94.78l24.22 28.55 -3.08 36.57c-9.46,112.26 -24.13,221.92 -46.32,327.82 -22.27,106.28 -52.26,208.01 -92.34,303.78 -69.3,165.61 -182.54,306.05 -310.43,423.3 -124.41,114.06 -263.66,206.68 -388.81,278.94 -318.36,183.83 -453.1,285.14 -522.34,337.19 -16.38,12.31 -10.42,8.06 -20.96,15.87l-12.82 7.66 -39.53 19.86 -39.51 -19.85 -13.19 -8.02 -20.62 -15.53c-69.24,-52.06 -203.97,-153.36 -522.33,-337.19 -125.14,-72.26 -264.4,-164.88 -388.81,-278.94 -127.89,-117.25 -241.14,-257.69 -310.43,-423.3 -51.48,-123.02 -86.34,-256.02 -109.65,-395.96 -22.87,-137.35 -34.77,-282.64 -40.51,-432.39l146.6 -37.82c-14.71,-22.45 -28.01,-44.95 -40.03,-67.29 -79.25,-147.21 -102.55,-287.9 -109.4,-358.49l-0.34 -9.4c0.42,-34.14 0.9,-68.32 1.37,-102.51 1.12,-81.29 2.26,-162.62 2.66,-242.18l0.11 -6.93c1.78,-96.02 2.77,-149.36 121.92,-196.66 26.6,-10.56 290.15,-106.69 562.6,-206.07 282.07,-102.88 573.84,-209.31 619.7,-227.19 110.8,-43.2 139.6,-42.37 139.68,-42.37l0.37 0zm75.92 208.13c-73.86,-28.8 -75.92,-29.81 -75.93,-29.83l-0.36 0c-0.01,0.02 -2.06,1.04 -75.92,29.83 -50.87,19.84 -341.86,125.98 -623.17,228.58 -263.99,96.29 -519.35,189.43 -557.74,204.68 -9.77,3.88 -9.97,14.53 -10.32,33.69l-0.11 5.88c-0.42,81.39 -1.54,161.98 -2.66,242.52 -0.45,32.41 -0.9,64.82 -1.31,97.19 6.02,58.09 25.54,169.2 88.88,286.85 64.09,119.05 173.83,244.2 361.7,325.18l1.73 0.7c95.46,43.58 196.87,80.82 325.2,114.68 130.11,34.33 288.93,65.48 498.07,96.52l7.28 1.39c99.4,23.4 171.45,57.51 221.67,98.51 67.84,55.38 96.97,121.98 99.05,192.91 1.88,64.01 -19.93,127.96 -55.22,187.4 -51.3,86.4 -133.16,165.76 -207.11,217.96l-37.53 26.49 -42.88 -15.34c-64.63,-23.13 -92.39,-32.93 -120,-42.67 -438.83,-154.78 -812.24,-286.57 -1107.27,-662.57 2.49,17.23 5.14,34.35 7.97,51.34 21.29,127.89 52.47,247.8 97.86,356.27 57.98,138.57 155.6,258.7 266.76,360.61 114.64,105.1 242.66,190.28 357.62,256.65 284.39,164.21 427.59,265.27 507.62,324.56 80.03,-59.29 223.23,-160.35 507.62,-324.56 114.96,-66.38 242.98,-151.55 357.62,-256.65 111.16,-101.92 208.78,-222.05 266.76,-360.61 35.13,-83.95 61.77,-174.85 81.94,-271.05 17.78,-84.85 30.44,-174.42 39.36,-267.44 -16.48,-16.1 -34.72,-31.33 -54.06,-45.66 -35.77,-26.5 -75.76,-50.08 -115.97,-70.64 -91.85,-46.96 -156.61,-73.7 -220.65,-90.83 -65.5,-17.52 -134.42,-26.4 -232.17,-37.05 -39.2,-4.27 -67.36,-7.14 -97.78,-10.24 -225.3,-22.96 -556.51,-56.71 -719.35,-124.17 -138.63,-57.43 -212.58,-138.55 -235.16,-226.22 -15.75,-61.17 -6.54,-122.28 23.47,-179.26 26.41,-50.17 69.1,-96.66 124.53,-135.89 147.99,-104.74 400.16,-164.55 675.4,-98.26 191.01,46.01 383.69,142.95 557.95,268.76 113.79,82.16 220.12,176.85 313.31,277.82 0.26,-106.98 -1.24,-215.16 -2.74,-323.38 -1.11,-80.32 -2.23,-160.67 -2.64,-241.84l-0.12 -5.87c-0.35,-19.17 -0.56,-29.83 -10.33,-33.71 -38.37,-15.24 -293.87,-108.43 -557.96,-204.76 -281.24,-102.58 -572.09,-208.67 -622.94,-228.5zm1169.81 1281.09c-105.5,-137.83 -240.55,-269.03 -389.68,-376.7 -156.71,-113.15 -328.04,-199.86 -495.56,-240.21 -221.68,-53.39 -419.53,-8.94 -532.61,71.09 -32.67,23.13 -56.6,48.18 -69.78,73.22 -9.59,18.21 -12.99,35.97 -8.92,51.81 9.13,35.46 49.86,72.75 131.18,106.43 138.97,57.56 454.68,89.74 669.45,111.63 41.57,4.23 79.87,8.14 99.17,10.24 106.21,11.57 181.82,21.42 258.5,41.93 78.14,20.9 153.24,51.53 256,104.06 27.38,14 55.06,29.48 82.25,46.5zm-2461.43 77.53c282.21,472.89 672.27,610.56 1143.17,776.66l75.76 26.73c46.17,-37.92 91.79,-86.13 121.74,-136.57 19.15,-32.25 31.07,-63.95 30.27,-91.29 -0.6,-20.4 -10.55,-40.84 -33.89,-59.89 -29.46,-24.05 -76.77,-45.35 -146.81,-62.17 -212.95,-31.7 -376.92,-64.04 -513.67,-100.13 -139.35,-36.77 -249.39,-77.16 -352.92,-124.43l0.02 -0.05c-139.91,-60.59 -244.89,-141.52 -323.66,-228.87z"/>
     </g>
    </g>
    <path class="fil8" d="M2997.82 627.17c0,0 13.39,-0.71 107.8,36.11 94.42,36.81 1114.98,406.8 1181.6,433.26 66.62,26.45 65.02,59.74 66.23,121.05 1.36,271.32 10.9,547.94 0.99,810.86 -224.14,-319.08 -605.71,-615.36 -975.68,-704.47 -550.28,-132.53 -985.51,284.12 -534.19,471.09 175.6,72.75 584.81,105.47 792.88,128.14 203.95,22.22 289.04,37.43 483.66,136.94 81.36,41.59 163.83,96.02 221.7,164.22 -18.48,219.2 -56.52,424.71 -131.72,604.43 -127.29,304.19 -421.71,521.12 -661.81,659.76 -357.36,206.35 -487.65,310.89 -551.62,358.29l-0.02 0.01 -0.02 -0.01c-63.97,-47.4 -194.26,-151.94 -551.62,-358.29 -240.1,-138.64 -534.52,-355.57 -661.81,-659.76 -96.87,-231.5 -132.06,-505.79 -143.23,-797.01 324.76,642.36 795.4,768.59 1375.57,976.24 181.06,-127.81 412.28,-433.73 -27.55,-537.29 -423.95,-62.93 -647.84,-127.31 -846.83,-218.17 -419.94,-180.99 -492,-562.15 -504.36,-689.59 1.41,-115.12 3.45,-230.73 4.03,-345.39 1.21,-61.32 -0.39,-94.6 66.23,-121.05 66.62,-26.45 1087.19,-396.44 1181.6,-433.26 94.42,-36.82 107.8,-36.11 107.8,-36.11l0.37 0z"/>
    <path class="fil9" d="M2997.82 604.89c0.05,0 17.26,-0.74 115.77,37.67 47.59,18.55 338.83,124.78 620.51,227.53 269.4,98.26 530.11,193.35 561.26,205.72 78.13,31.03 78.83,68.36 80.08,135.55l0.11 6.14c0.4,80.08 1.52,160.97 2.64,241.8 2.66,192.38 5.33,384.6 -1.65,569.93l-16.54 4.94 -23.66 7.07c-114.18,-162.55 -269.72,-319.12 -443.74,-444.76 -163.29,-117.89 -342.62,-208.44 -518.95,-250.91 -241.77,-58.23 -459.99,-8.02 -586.16,81.27 -41.21,29.16 -72.16,62.26 -90.31,96.72 -17.24,32.76 -22.83,66.78 -14.38,99.6 14.17,55.04 67.36,108.77 170.17,151.35 147.94,61.29 469.49,94.06 688.2,116.34 37.36,3.81 71.9,7.33 98.61,10.23 103.03,11.22 176.14,20.71 248.63,40.1 72.86,19.49 144.09,48.66 242.74,99.1 44.57,22.79 89.62,49.46 131.14,80.22 36.06,26.71 69.38,56.47 97.32,89.4l6.06 7.14 -0.77 9.14c-9.29,110.26 -23.56,217.31 -45.02,319.72 -21.48,102.5 -50.21,200.17 -88.43,291.5 -65.06,155.47 -172.44,288.29 -294.06,399.8 -120.75,110.71 -255.79,200.53 -377.11,270.58 -322.03,185.95 -458.82,288.79 -529.1,341.63l-20.43 15.34 -2.08 1.39 -11.03 6.33 -11 -6.32 -2.1 -1.4 -20.43 -15.34c-70.29,-52.84 -207.06,-155.68 -529.1,-341.63 -121.32,-70.05 -256.36,-159.88 -377.11,-270.58 -121.62,-111.51 -229.01,-244.33 -294.06,-399.8 -49.19,-117.56 -82.67,-245.65 -105.22,-381.07 -22.44,-134.78 -34.12,-277.14 -39.74,-423.77l41.85 -10.79c297.96,589.34 722.32,739.03 1242.73,922.6 38.26,13.49 76.94,27.14 109.61,38.79 60.88,-44.64 125.96,-108.8 166.66,-177.35 25.2,-42.44 40.83,-86.24 39.62,-127.33 -1.15,-39.35 -18.3,-77.1 -58.33,-109.77 -37.41,-30.54 -94.41,-56.76 -176.2,-76.1 -212.19,-31.52 -374.66,-63.48 -509.23,-98.99 -135.23,-35.68 -242.04,-74.89 -342.52,-120.78 -215.23,-92.89 -341.43,-237.18 -415.42,-374.62 -89.26,-165.81 -102.89,-269.05 -100.57,-438.55 1.13,-80.96 2.25,-161.96 2.66,-242.16l0.11 -6.15c1.24,-67.19 1.94,-104.52 80.06,-135.54 31.14,-12.36 291.86,-107.46 561.26,-205.72 281.69,-102.75 572.92,-208.98 620.52,-227.53 98.52,-38.41 115.72,-37.67 115.77,-37.67l0.38 0zm99.83 79.11c-90.31,-35.21 -99.8,-34.53 -99.83,-34.53l-0.38 0c-0.03,0 -9.52,-0.68 -99.82,34.53 -49.07,19.13 -340,125.25 -621.39,227.88 -267.39,97.53 -526.15,191.92 -560.04,205.37 -50.78,20.17 -51.28,46.83 -52.17,94.8l-0.11 5.89c-0.41,80.66 -1.53,161.47 -2.65,242.25 -2.19,159.74 16.18,269.86 95.37,416.96 70.06,130.14 189.75,266.83 394.19,354.95l0.43 0.17c98.5,44.98 203.14,83.4 335.59,118.34 132.89,35.07 294.06,66.73 505.35,98.09l1.82 0.35c89.1,20.98 152.28,50.4 194.9,85.19 51.15,41.76 73.09,91.04 74.62,143.03 1.47,50.25 -16.63,102.12 -45.86,151.35 -46.18,77.78 -120.74,149.84 -188.39,197.59l-9.38 6.62 -10.72 -3.84c-46.57,-16.66 -83.72,-29.77 -120.29,-42.67 -503.37,-177.56 -918.42,-324.02 -1221.08,-857.57 6.57,110.17 17.33,217.42 34.46,320.27 22.05,132.4 54.61,257.23 102.28,371.15 62.23,148.71 165.71,276.46 283.14,384.12 118.3,108.46 250.54,196.43 369.31,265.01 324.48,187.37 462.62,291.23 533.61,344.6l7.02 5.27 7.03 -5.27c70.99,-53.37 209.13,-157.24 533.61,-344.6 118.78,-68.58 251.01,-156.55 369.31,-265.01 117.43,-107.66 220.91,-235.41 283.14,-384.12 36.98,-88.38 64.88,-183.34 85.83,-283.32 20.38,-97.23 34.17,-199.4 43.35,-305.05 -24.35,-27.44 -52.92,-52.57 -83.79,-75.44 -39.21,-29.04 -82.23,-54.48 -125.07,-76.38 -95.94,-49.06 -164.59,-77.25 -233.91,-95.8 -69.69,-18.65 -141.12,-27.89 -242.04,-38.88 -31.76,-3.46 -63.67,-6.71 -98.26,-10.24 -221.35,-22.55 -546.77,-55.71 -700.68,-119.47 -117.14,-48.52 -178.63,-113.2 -196.16,-181.3 -11.37,-44.17 -4.33,-89.02 18.02,-131.47 21.45,-40.73 57.1,-79.19 104,-112.39 134.89,-95.48 366.7,-149.52 621.85,-88.06 182.21,43.88 366.87,136.98 534.55,258.05 159.38,115.07 303.63,255.54 415.96,403.07 4.31,-164.76 1.97,-334.16 -0.38,-503.69 -1.11,-80.66 -2.24,-161.35 -2.64,-241.89l-0.11 -5.88c-0.89,-47.99 -1.39,-74.65 -52.18,-94.81 -33.87,-13.45 -292.65,-107.85 -560.04,-205.37 -281.39,-102.63 -572.3,-208.75 -621.38,-227.88z"/>
   </g>
   <path class="fil9" d="M377.09 5381.65c-75.42,-12.37 -127.75,-43.3 -127.75,-80.42 0,-51.03 96.96,-61.86 132.36,-61.86 76.96,0 146.22,43.3 156.99,60.31l177 -136.09c-66.18,-95.88 -215.48,-145.37 -330.91,-145.37 -170.84,0 -357.08,109.8 -357.08,293.83 0,142.28 110.82,244.34 312.45,289.19 53.87,10.83 175.46,18.56 175.46,95.88 0,74.23 -96.97,81.96 -149.3,81.96 -89.27,0 -157,-49.49 -184.7,-100.52l-181.61 126.81c75.41,134.54 218.55,194.86 367.85,194.86 201.63,0 369.39,-111.35 369.39,-309.29 0,-171.66 -126.21,-269.09 -360.16,-309.29zm490.99 606.21l601.8 0 0 -222.69 -380.17 0 0 -145.37 329.37 0 0 -221.14 -329.37 0 0 -146.91 386.32 0 0 -221.15 -607.96 0 0 957.26zm1291.33 -436.1l-360.16 -521.16 -183.16 0 0 955.72 221.64 0 0 -524.26 363.24 524.26 180.08 0 0 -955.72 -221.64 0 0 521.16zm293.98 -300.01l258.58 0 0 733.02 220.09 0 0 -733.02 263.19 0 0 -221.15 -741.86 0 0 221.15zm803.43 734.57l220.1 0 0 -955.72 -220.1 0 0 955.72zm934.26 -434.56l-360.16 -521.16 -183.16 0 0 955.72 221.64 0 0 -524.26 363.24 524.26 180.08 0 0 -955.72 -221.64 0 0 521.16zm404.79 436.1l601.81 0 0 -222.69 -380.17 0 0 -145.37 329.38 0 0 -221.14 -329.38 0 0 -146.91 386.32 0 0 -221.15 -607.96 0 0 957.26zm969.66 -957.26l-221.64 0 0 955.72 655.67 0 0 -222.69 -434.04 0 0 -733.03z"/>
  </g>
 </g>
</svg>
